<svg width="138" height="136" viewBox="0 0 138 136" fill="none" xmlns="http://www.w3.org/2000/svg">
<path fill-rule="evenodd" clip-rule="evenodd" d="M136.763 135C109.18 135 82.1909 127.016 59.0718 112.016L59.2774 111.701C54.2455 108.412 49.4276 104.807 44.8529 100.907L44.853 100.907C23.9832 83.1172 8.71527 59.6668 0.894434 33.39L110.826 0.705811C112.33 5.75906 115.266 10.2688 119.279 13.69L119.279 13.6901C120.175 14.4535 121.119 15.1582 122.105 15.7998L121.989 15.9788C126.398 18.7944 131.525 20.292 136.763 20.292V135Z" fill="url(#paint0_linear_1_1488)"/>
<path d="M59.0718 112.016L58.6531 111.743L58.379 112.163L58.7997 112.436L59.0718 112.016ZM136.763 135V135.5H137.263V135H136.763ZM59.2774 111.701L59.6961 111.975L59.9692 111.556L59.5509 111.283L59.2774 111.701ZM44.8529 100.907L44.4659 100.591L44.1556 100.97L44.5285 101.288L44.8529 100.907ZM44.853 100.907L45.24 101.224L45.5503 100.845L45.1774 100.527L44.853 100.907ZM0.894434 33.39L0.751941 32.9107L0.272535 33.0533L0.41521 33.5326L0.894434 33.39ZM110.826 0.705811L111.305 0.563178L111.162 0.0840933L110.683 0.226545L110.826 0.705811ZM119.279 13.69L119.659 14.0149L119.985 13.6343L119.604 13.3094L119.279 13.69ZM119.279 13.6901L118.899 13.3652L118.574 13.7458L118.955 14.0706L119.279 13.6901ZM122.105 15.7998L122.524 16.0726L122.797 15.6534L122.378 15.3806L122.105 15.7998ZM121.989 15.9788L121.57 15.706L121.294 16.1287L121.719 16.4002L121.989 15.9788ZM136.763 20.292H137.263V19.792H136.763V20.292ZM58.7997 112.436C81.9998 127.488 109.084 135.5 136.763 135.5V134.5C109.277 134.5 82.3819 126.544 59.3439 111.597L58.7997 112.436ZM58.8587 111.428L58.6531 111.743L59.4905 112.29L59.6961 111.975L58.8587 111.428ZM59.5509 111.283C54.5368 108.005 49.7359 104.413 45.1772 100.527L44.5285 101.288C49.1194 105.201 53.9542 108.819 59.0038 112.12L59.5509 111.283ZM45.2398 101.224L45.24 101.224L44.466 100.591L44.4659 100.591L45.2398 101.224ZM45.1774 100.527C24.3811 82.7994 9.16692 59.4315 1.37366 33.2474L0.41521 33.5326C8.26361 59.902 23.5854 83.4351 44.5286 101.288L45.1774 100.527ZM1.03693 33.8693L110.968 1.18508L110.683 0.226545L0.751941 32.9107L1.03693 33.8693ZM110.346 0.848444C111.878 5.99431 114.868 10.5867 118.955 14.0705L119.604 13.3094C115.664 9.95092 112.781 5.52381 111.305 0.563178L110.346 0.848444ZM118.899 13.365L118.899 13.3652L119.659 14.0151L119.659 14.0149L118.899 13.365ZM118.955 14.0706C119.867 14.848 120.828 15.5656 121.833 16.2189L122.378 15.3806C121.409 14.7508 120.483 14.059 119.603 13.3096L118.955 14.0706ZM121.686 15.527L121.57 15.706L122.408 16.2516L122.524 16.0726L121.686 15.527ZM136.763 19.792C131.62 19.792 126.586 18.3216 122.258 15.5574L121.719 16.4002C126.209 19.2671 131.43 20.792 136.763 20.792V19.792ZM137.263 135V20.292H136.263V135H137.263Z" fill="url(#paint1_linear_1_1488)"/>
<defs>
<linearGradient id="paint0_linear_1_1488" x1="206.548" y1="45.8494" x2="133.513" y2="-73.203" gradientUnits="userSpaceOnUse">
<stop stop-color="#9A9A9A"/>
<stop offset="1" stop-color="#DCDCDC"/>
</linearGradient>
<linearGradient id="paint1_linear_1_1488" x1="136.763" y1="67.8529" x2="0.89444" y2="67.8529" gradientUnits="userSpaceOnUse">
<stop stop-color="#9D9595"/>
<stop offset="1" stop-color="#E1E1E1"/>
</linearGradient>
</defs>
</svg>
